<svg viewBox="0 0 59.75 26.25" xmlns="http://www.w3.org/2000/svg" xmlns:xlink="http://www.w3.org/1999/xlink"><linearGradient id="a" gradientUnits="userSpaceOnUse" x1="18.43" x2="29.8" y1="16.41" y2="16.41"><stop offset="0" stop-color="#499aff"/><stop offset=".34" stop-color="#3583E2"/><stop offset=".9" stop-color="#326AAE"/><stop offset="1" stop-color="#3770B7"/></linearGradient><path d="m33.69 9.42h.78v-.42h-.78v-1.98h.81v-.42h-1.31v5.42h.5z"/><path d="m37.09 11.3v-4.7h-.49v4.54c0 .39-.12.51-.38.51s-.37-.12-.37-.51v-4.54h-.5v4.7c0 .6.45.77.86.77s.88-.17.88-.77z"/><path d="m39.33 11.6h-.81v-5h-.5v5.42h1.31z"/><path d="m41.49 11.6h-.82v-5h-.49v5.42h1.31z"/><path d="m41.84 9.56h.9v.42h-.9z"/><path d="m45 10.42a1.33 1.33 0 0 0 -.18-.66l-.82-1.35a1 1 0 0 1 -.11-.49v-.57c0-.21 0-.37.28-.37s.29.16.29.37v.65h.54v-.68c0-.5-.23-.76-.79-.76a.7.7 0 0 0 -.78.79v.65a1.27 1.27 0 0 0 .21.69l.68 1.31a.93.93 0 0 1 .14.52v.75c0 .26-.09.41-.3.41s-.31-.15-.31-.41v-.71h-.5v.74a.71.71 0 0 0 .81.8.73.73 0 0 0 .8-.8z"/><path d="m45.68 7.02h.55v5h.5v-5h.55v-.42h-1.6z"/><path d="m49.16 6.6h-.68l-.79 5.4h.49l.2-1.5h.87l.21 1.5h.54zm-.72 3.5.37-3.1.37 3.12z"/><path d="m51.47 12.07a.69.69 0 0 0 .77-.75v-.77h-.49v.75c0 .24-.09.35-.28.35s-.28-.11-.28-.35v-4c0-.24.08-.35.28-.35s.28.11.28.35v.7h.49v-.69a.77.77 0 0 0 -1.54 0v4a.69.69 0 0 0 .77.76z"/><path d="m53.53 9.31h.02l.67 2.71h.49l-.78-2.94.72-2.48h-.5l-.6 2.33h-.02v-2.33h-.49v5.42h.49z"/><path d="m34.06 14.1h-.85v5.42h.85c.68 0 .84-.34.84-.87v-3.65c0-.55-.16-.9-.84-.9zm.35 4.58c0 .32-.11.42-.44.42h-.26v-4.58h.29c.33 0 .44.11.44.43z"/><path d="m35.84 19.52h1.31v-.42h-.82v-2.18h.78v-.42h-.78v-1.98h.82v-.42h-1.31z"/><path d="m38.82 19.03h-.02l-.49-4.93h-.49l.63 5.42h.72l.63-5.42h-.49z"/><path d="m40.54 19.52h1.31v-.42h-.81v-2.18h.78v-.42h-.78v-1.98h.81v-.42h-1.31z"/><path d="m43.2 14.1h-.5v5.42h1.32v-.42h-.82z"/><path d="m45.72 14.06c-.67 0-.88.38-.88.91v3.68c0 .54.21.92.88.92s.87-.38.87-.92v-3.65c0-.56-.21-.94-.87-.94zm.37 4.58c0 .3-.06.51-.37.51s-.38-.21-.38-.51v-3.64c0-.3.06-.51.38-.51s.37.21.37.51z"/><path d="m48.3 14.1h-.79v5.42h.49v-2.44h.29c.64 0 .83-.21.83-.82v-1.33c.01-.62-.18-.83-.82-.83zm.33 2.23c0 .27-.16.33-.38.33h-.25v-2.14h.24c.22 0 .38.06.38.34z"/><path d="m51.2 18.95h-.01l-.56-4.85h-.77v5.42h.44v-5h.01l.57 5h.62l.57-5h.02v5h.43v-5.42h-.76z"/><path d="m53.42 19.52h1.32v-.42h-.82v-2.18h.78v-.42h-.78v-1.98h.82v-.42h-1.32z"/><path d="m56.91 18.74h-.01l-.61-4.64h-.72v5.42h.44v-4.81h.01l.63 4.81h.7v-5.42h-.44z"/><path d="m58.15 14.1v.42h.55v5h.5v-5h.55v-.42z"/><path d="m18.43 0-11.36 6.56h4.05v6.34l2.11-3.03h4.44l-3.07 4 3.13 5.83h-4.38l-1.42-2.7-.81 1.05v1.65h-4.03l11.34 6.55 11.37-6.56v-13.13z" fill="#499aff"/><path d="m9.31 14.79c0-2-1.5-2.7-4-3.31-1-.25-1.21-.38-1.21-.57 0-.2.18-.31.58-.31a7.32 7.32 0 0 1 3.13.92l1.32-2.52a8.73 8.73 0 0 0 -4.41-1.12c-2.56 0-4.29 1.2-4.29 3.36 0 2 1.53 2.7 4 3.31 1 .25 1.17.38 1.17.58 0 .24-.2.33-.6.33a7.11 7.11 0 0 1 -3.63-1.1l-1.37 2.39a9 9 0 0 0 5 1.43c2.71 0 4.31-1.25 4.31-3.39z" fill="#499aff"/><path d="m18.43 13.13v13.12l11.37-6.56v-13.13z" fill="url(#a)"/></svg>