<svg viewBox="0 0 29.8 26.25" xmlns="http://www.w3.org/2000/svg" xmlns:xlink="http://www.w3.org/1999/xlink"><linearGradient id="a" gradientUnits="userSpaceOnUse" x1="18.43" x2="29.8" y1="16.41" y2="16.41"><stop offset="0" stop-color="#499aff"/><stop offset=".34" stop-color="#3583E2"/><stop offset=".9" stop-color="#326AAE"/><stop offset="1" stop-color="#3770B7"/></linearGradient><path d="m18.43 0-11.36 6.56h4.05v6.34l2.11-3.03h4.44l-3.07 4 3.13 5.83h-4.38l-1.42-2.7-.81 1.05v1.65h-4.03l11.34 6.55 11.37-6.56v-13.13z" fill="#499aff"/><path d="m9.31 14.79c0-2-1.5-2.7-4-3.31-1-.25-1.21-.38-1.21-.57 0-.2.18-.31.58-.31a7.32 7.32 0 0 1 3.13.92l1.32-2.52a8.73 8.73 0 0 0 -4.41-1.12c-2.56 0-4.29 1.2-4.29 3.36 0 2 1.53 2.7 4 3.31 1 .25 1.17.38 1.17.58 0 .24-.2.33-.6.33a7.11 7.11 0 0 1 -3.63-1.1l-1.37 2.39a9 9 0 0 0 5 1.43c2.71 0 4.31-1.25 4.31-3.39z" fill="#499aff"/><path d="m18.43 13.13v13.12l11.37-6.56v-13.13z" fill="url(#a)"/></svg>
